<?xml version="1.0" standalone="no"?>
<!DOCTYPE svg PUBLIC "-//W3C//DTD SVG 20010904//EN"
 "http://www.w3.org/TR/2001/REC-SVG-20010904/DTD/svg10.dtd">
<svg version="1.0" xmlns="http://www.w3.org/2000/svg"
 width="2314.000000pt" height="2314.000000pt" viewBox="0 0 2314.000000 2314.000000"
 preserveAspectRatio="xMidYMid meet">
<metadata>
Created by potrace 1.14, written by Peter Selinger 2001-2017
</metadata>
<g transform="translate(0.000000,2314.000000) scale(0.100000,-0.100000)"
fill="#000000" stroke="none">
<path d="M3 12704 l2 -9927 25 -8 c14 -4 122 -33 240 -64 118 -32 256 -68 305
-82 50 -14 131 -35 180 -48 50 -13 126 -33 170 -45 44 -12 262 -70 485 -130
223 -60 567 -152 765 -206 198 -53 416 -111 485 -130 69 -18 177 -47 240 -64
63 -17 123 -33 132 -35 16 -3 436 -116 783 -210 94 -25 177 -48 185 -50 8 -1
175 -46 370 -99 195 -52 567 -152 825 -221 259 -70 475 -128 480 -129 6 -2 24
-6 40 -10 57 -15 510 -136 545 -146 19 -6 154 -42 300 -80 146 -39 288 -77
315 -85 83 -24 958 -257 984 -261 14 -3 28 -7 32 -10 8 -5 43 4 697 180 445
120 659 178 672 181 13 3 406 108 660 176 84 23 894 240 1300 348 146 39 290
78 320 87 30 8 62 17 70 19 8 1 85 22 170 45 85 23 247 66 360 96 361 97 530
143 760 205 124 33 232 62 240 64 13 3 167 44 335 90 33 8 155 41 270 71 116
31 239 64 275 74 91 26 1041 281 1065 286 11 2 49 12 84 22 l63 18 142 -39
c77 -21 148 -40 156 -42 8 -2 119 -31 245 -65 127 -34 237 -64 245 -65 8 -2
67 -18 130 -35 63 -17 122 -33 130 -35 12 -3 438 -118 720 -194 41 -11 120
-31 175 -46 55 -14 132 -35 170 -45 39 -11 180 -49 315 -85 135 -36 268 -72
295 -79 28 -8 280 -76 560 -151 281 -74 533 -142 560 -150 28 -7 111 -30 185
-49 74 -20 268 -72 430 -115 330 -89 402 -108 543 -146 54 -14 257 -68 450
-120 194 -52 388 -104 432 -116 44 -12 118 -32 165 -45 47 -12 198 -53 335
-89 138 -37 279 -75 315 -85 36 -10 101 -27 145 -39 44 -12 195 -52 335 -90
140 -37 352 -94 470 -125 118 -32 223 -60 233 -62 11 -4 17 0 18 13 0 10 1
4475 1 9923 1 8433 -1 9905 -13 9912 -11 7 -301 87 -369 102 -8 2 -35 10 -60
17 -25 7 -49 13 -55 15 -5 1 -113 30 -240 64 -270 73 -351 94 -540 144 -77 21
-237 64 -355 96 -118 32 -345 92 -505 135 -159 42 -321 86 -359 97 -38 11 -76
21 -85 23 -22 4 -311 82 -561 150 -113 31 -216 59 -230 61 -13 3 -78 20 -145
38 -66 19 -217 59 -335 91 -118 31 -244 65 -280 75 -36 10 -137 37 -225 60
-149 39 -250 66 -335 90 -19 6 -136 37 -260 70 -124 33 -326 87 -450 121 -124
33 -232 62 -240 64 -8 2 -152 40 -320 85 -343 92 -353 95 -540 145 -235 62
-310 82 -505 135 -104 29 -206 56 -225 60 -19 5 -75 20 -125 33 -49 14 -133
36 -185 50 -52 14 -154 42 -225 61 l-131 35 -219 -58 c-121 -33 -382 -103
-580 -156 -198 -53 -367 -98 -375 -100 -42 -10 -849 -227 -876 -236 -17 -5
-40 -11 -52 -14 -11 -2 -146 -37 -299 -79 -153 -41 -332 -89 -398 -107 -66
-17 -169 -45 -230 -61 -60 -16 -157 -42 -215 -57 -58 -16 -184 -50 -280 -76
-96 -26 -224 -60 -285 -76 -137 -37 -122 -33 -235 -64 -52 -14 -106 -28 -120
-31 -14 -3 -50 -12 -80 -21 -30 -9 -57 -16 -60 -16 -3 0 -15 -3 -28 -8 -12 -5
-34 -11 -49 -13 -14 -3 -58 -14 -97 -26 -39 -11 -156 -43 -261 -71 -104 -27
-221 -58 -260 -69 -38 -10 -189 -50 -335 -89 -146 -39 -287 -77 -315 -85 -27
-8 -194 -53 -370 -100 -176 -47 -405 -108 -510 -136 -104 -29 -230 -62 -280
-75 -49 -13 -166 -45 -260 -70 -93 -26 -180 -49 -192 -51 -12 -2 -32 -8 -44
-13 -16 -5 -61 2 -149 26 -69 18 -165 44 -215 58 -49 13 -209 56 -355 95 -146
39 -274 73 -285 75 -11 3 -92 24 -180 49 -88 24 -230 62 -315 85 -85 22 -348
93 -585 157 -236 63 -439 117 -450 120 -11 2 -67 17 -125 33 -91 25 -131 35
-175 47 -5 1 -104 28 -220 59 -115 31 -217 58 -225 60 -8 2 -49 13 -90 24 -86
24 -115 32 -805 216 -280 75 -532 142 -560 150 -39 11 -345 93 -595 159 -14 4
-47 13 -75 21 -71 19 -157 42 -615 165 -223 60 -533 143 -690 185 -556 149
-606 163 -725 194 -66 18 -128 34 -138 36 -9 2 -21 6 -25 9 -5 3 -19 7 -33 10
-23 4 -245 61 -281 72 -17 5 -18 -512 -15 -9922z m654 9275 c232 -62 312 -83
408 -109 123 -33 227 -61 280 -75 28 -8 86 -23 130 -35 44 -12 215 -57 380
-102 165 -44 323 -86 350 -93 28 -8 237 -64 465 -125 228 -62 433 -117 455
-122 22 -5 72 -18 110 -29 118 -33 131 -37 405 -109 146 -38 288 -77 315 -85
28 -8 196 -53 375 -100 372 -99 679 -181 730 -195 51 -15 513 -139 595 -160
39 -10 97 -26 130 -35 279 -75 363 -98 379 -101 10 -2 33 -8 50 -13 17 -6 65
-19 106 -30 41 -10 246 -65 455 -121 209 -56 388 -103 398 -105 9 -2 21 -6 25
-9 5 -3 19 -7 33 -9 13 -3 92 -24 176 -46 84 -23 160 -44 170 -46 10 -2 87
-23 172 -45 l154 -41 231 62 c127 34 278 74 336 90 58 15 191 51 295 79 105
28 240 64 300 80 315 84 449 120 535 143 52 14 154 42 225 61 72 19 258 69
415 111 594 160 806 216 822 220 9 2 52 13 95 26 43 12 83 22 88 24 17 3 65
16 215 57 80 22 201 55 270 73 129 34 285 76 710 190 552 147 672 180 830 222
90 25 171 46 180 48 8 2 58 15 110 29 52 14 129 35 170 46 41 11 156 42 255
69 99 27 243 66 320 86 77 20 214 57 305 82 91 25 172 46 180 48 8 2 111 29
228 61 l213 57 142 -38 c78 -20 171 -45 207 -55 36 -10 101 -28 145 -39 89
-24 459 -123 750 -201 105 -28 222 -60 260 -70 345 -91 649 -172 690 -184 28
-8 138 -38 245 -67 107 -28 267 -71 355 -94 88 -24 203 -55 255 -69 52 -13
214 -57 360 -96 146 -39 272 -73 280 -75 14 -3 429 -114 560 -150 30 -8 105
-28 167 -45 117 -31 147 -39 448 -120 320 -86 379 -102 399 -106 10 -2 33 -8
50 -13 26 -9 868 -235 916 -246 8 -2 67 -18 130 -35 63 -17 122 -33 130 -35
240 -60 944 -255 949 -263 7 -12 7 -18879 0 -18886 -4 -5 -60 9 -279 67 -52
14 -246 66 -430 115 -184 49 -346 93 -360 96 -33 10 -241 65 -260 70 -8 3 -51
14 -95 26 -72 19 -637 171 -822 221 -98 26 -173 46 -543 146 -339 91 -445 119
-500 133 -19 5 -84 22 -145 38 -60 17 -146 40 -190 52 -516 139 -643 172 -659
176 -10 2 -33 8 -50 13 -17 6 -74 21 -126 35 -52 14 -273 73 -490 131 -217 58
-402 108 -410 110 -8 2 -51 13 -95 25 -194 52 -752 202 -767 206 -10 2 -26 6
-35 8 -10 2 -58 15 -108 29 -137 39 -358 99 -375 102 -25 5 -433 114 -465 124
-16 5 -76 21 -131 36 l-102 26 -153 -41 c-85 -23 -246 -66 -359 -96 -113 -31
-238 -64 -278 -75 -40 -11 -81 -22 -90 -24 -9 -2 -170 -45 -357 -95 -187 -51
-347 -93 -355 -95 -14 -4 -598 -160 -710 -191 -30 -8 -62 -17 -70 -19 -8 -2
-67 -18 -130 -35 -63 -17 -122 -33 -130 -34 -18 -5 -158 -42 -375 -101 -88
-24 -203 -55 -255 -69 -125 -33 -730 -195 -1090 -291 -157 -42 -402 -108 -545
-146 -250 -68 -320 -86 -478 -128 -39 -11 -99 -27 -132 -36 -33 -9 -91 -24
-130 -35 -192 -50 -616 -163 -660 -175 -129 -37 -200 -56 -330 -90 -77 -20
-171 -46 -209 -57 -38 -11 -78 -21 -89 -23 -10 -3 -105 -27 -211 -56 -208 -56
-206 -56 -346 -13 -25 8 -164 46 -310 84 -146 38 -287 76 -315 85 -27 8 -93
25 -145 39 -52 14 -279 74 -505 135 -524 140 -556 148 -642 172 -40 11 -80 22
-90 24 -10 2 -137 36 -283 75 -146 39 -272 73 -280 75 -8 3 -55 15 -105 29
-49 13 -135 36 -190 50 -54 15 -131 36 -170 46 -188 51 -661 178 -820 220 -41
11 -110 29 -152 41 -43 11 -195 52 -338 90 -143 39 -303 82 -355 96 -91 24
-188 50 -425 113 -60 16 -211 56 -335 90 -234 63 -345 92 -715 191 -121 33
-242 66 -270 74 -27 8 -93 25 -145 39 -52 14 -180 48 -285 76 -104 28 -197 53
-205 55 -22 4 -97 24 -157 41 l-53 15 0 9450 c0 5197 2 9449 4 9449 3 0 89
-23 193 -51z"/>
<path d="M1011 20923 l0 -386 99 -101 c54 -56 126 -131 161 -167 60 -63 372
-386 630 -654 64 -66 140 -145 169 -175 29 -30 150 -156 270 -280 120 -124
246 -254 280 -290 34 -36 155 -162 270 -280 114 -118 236 -244 270 -280 34
-36 153 -159 264 -274 110 -115 264 -274 341 -354 77 -80 167 -173 200 -207
52 -53 292 -303 522 -541 37 -39 162 -169 276 -287 115 -119 217 -225 226
-236 19 -22 0 -40 521 499 30 31 164 169 297 306 133 137 274 283 314 324 119
124 575 595 947 978 119 123 256 264 303 313 l86 90 -1 331 -1 331 -40 13
c-22 6 -78 22 -125 34 -47 12 -98 26 -115 31 -16 5 -70 20 -120 33 -306 80
-428 113 -472 127 -18 6 -42 12 -53 14 -12 2 -30 7 -40 10 -10 3 -27 8 -37 10
-15 3 -168 44 -725 194 -43 12 -113 30 -155 41 -43 12 -92 25 -109 31 -17 5
-40 11 -51 13 -11 3 -124 32 -249 66 -126 34 -236 64 -244 66 -31 7 -467 124
-500 134 -19 6 -222 60 -450 121 -228 61 -464 124 -525 140 -60 16 -117 31
-125 34 -18 4 -94 24 -430 115 -250 67 -445 119 -465 124 -23 6 -77 21 -210
57 -77 20 -185 50 -240 64 -55 15 -149 40 -210 56 -60 16 -117 31 -125 33 -8
2 -67 18 -130 36 -63 17 -123 33 -132 35 -9 2 -93 24 -185 49 -93 25 -172 46
-175 46 -4 0 -7 -174 -7 -387z"/>
<path d="M15679 21299 c-5 -62 -2 -5822 3 -5825 6 -4 87 26 428 159 171 67
824 320 1035 401 66 26 129 51 140 56 11 5 128 50 260 100 132 50 249 96 260
101 17 7 304 119 735 285 63 25 124 49 135 53 11 5 58 24 105 41 72 27 160 61
245 95 11 4 40 16 65 25 25 9 187 72 360 139 173 68 354 138 403 157 588 228
1991 774 2110 820 76 30 142 54 148 54 5 0 9 12 9 28 1 36 1 1505 0 1558 l0
42 -62 16 c-153 39 -971 257 -1038 276 -82 23 -187 52 -207 56 -12 2 -33 8
-45 13 -13 5 -25 9 -28 9 -7 0 -77 18 -185 47 -49 14 -209 56 -355 95 -146 39
-287 77 -315 85 -27 8 -210 57 -405 109 -390 104 -488 130 -570 152 -30 8 -95
26 -145 39 -49 13 -117 31 -150 40 -33 9 -67 18 -75 20 -8 2 -67 18 -130 35
-63 17 -123 33 -132 35 -9 2 -51 13 -93 25 -42 12 -84 23 -93 25 -9 3 -60 16
-112 30 -93 25 -270 73 -300 80 -8 2 -217 59 -465 125 -247 67 -457 123 -465
125 -13 3 -536 143 -770 206 -41 12 -115 31 -165 45 -49 13 -100 26 -112 30
-16 4 -23 2 -24 -7z"/>
<path d="M14609 21266 c-2 -3 -83 -25 -179 -51 -96 -25 -218 -58 -270 -72 -52
-13 -102 -27 -110 -28 -8 -2 -55 -15 -105 -29 -91 -24 -231 -62 -360 -96 -38
-10 -97 -26 -130 -35 -33 -9 -67 -18 -75 -20 -8 -2 -49 -13 -90 -24 -41 -12
-94 -26 -117 -31 -24 -6 -82 -21 -129 -35 -48 -14 -96 -27 -108 -29 -23 -5
-368 -97 -452 -121 l-51 -15 -129 -202 c-70 -112 -160 -252 -199 -313 -84
-130 -393 -615 -415 -650 -20 -33 -170 -269 -235 -370 -29 -44 -121 -188 -205
-320 -84 -132 -162 -256 -175 -275 -86 -133 -154 -241 -321 -502 -104 -163
-205 -322 -224 -353 -49 -78 -290 -456 -335 -525 -13 -19 -123 -192 -246 -385
-122 -192 -310 -487 -417 -655 -107 -168 -202 -317 -211 -331 -9 -14 -29 -46
-45 -70 -32 -49 -660 -1035 -716 -1124 -19 -30 -75 -119 -125 -197 l-90 -141
0 -548 -1 -548 421 -211 c231 -116 425 -210 430 -210 6 0 53 68 105 152 52 83
122 193 155 244 33 52 92 143 130 204 39 61 93 145 120 188 28 42 81 127 120
187 38 61 92 146 120 190 28 44 74 115 101 158 27 43 79 124 115 180 62 95
254 396 1152 1807 198 311 379 594 402 630 23 36 57 90 77 120 19 30 60 93 90
140 48 76 104 163 148 235 26 42 430 675 495 775 34 53 68 106 75 120 7 13 17
29 22 34 10 12 340 527 360 563 7 13 73 116 146 230 73 115 236 370 363 568
126 198 255 401 287 450 32 50 175 273 318 498 142 224 321 504 397 623 75
119 137 218 137 220 0 5 -16 5 -21 0z"/>
<path d="M14746 20689 c-22 -35 -63 -100 -92 -144 -28 -44 -146 -228 -262
-410 -299 -471 -361 -568 -372 -585 -12 -17 -97 -151 -156 -245 -21 -33 -65
-103 -99 -155 -71 -110 -480 -752 -540 -847 -22 -35 -104 -164 -182 -286 -527
-824 -830 -1300 -1124 -1762 -49 -77 -106 -167 -128 -200 -21 -33 -60 -94 -86
-135 -26 -41 -62 -97 -80 -125 -18 -27 -211 -331 -430 -675 -219 -344 -423
-664 -454 -712 -31 -48 -78 -123 -105 -165 -61 -96 -112 -176 -203 -318 -38
-60 -93 -146 -121 -190 -28 -44 -107 -168 -176 -275 -389 -610 -566 -890 -566
-897 0 -4 394 -205 876 -446 l876 -438 26 23 c14 13 39 37 57 53 17 17 73 68
124 115 51 47 105 96 120 110 30 28 231 213 272 251 15 13 80 74 145 134 65
61 150 139 189 175 38 35 75 69 81 75 83 78 231 214 245 226 10 8 73 67 141
130 67 63 156 145 198 184 41 38 93 86 115 107 22 20 50 45 61 55 12 10 75 68
140 129 66 61 133 123 149 138 17 16 77 71 134 124 57 54 112 104 123 114 19
16 177 163 313 289 38 36 95 88 125 115 30 27 59 54 65 60 5 6 102 96 215 200
242 222 282 259 367 339 l63 60 -2 2934 -3 2934 -39 -64z"/>
<path d="M11839 20525 c-4 -4 -234 -67 -474 -130 -49 -13 -142 -38 -205 -55
-63 -17 -122 -33 -130 -35 -8 -2 -142 -38 -298 -80 -156 -42 -291 -78 -300
-80 -9 -2 -109 -29 -222 -60 -113 -31 -215 -58 -227 -61 -12 -2 -87 -22 -166
-44 -79 -21 -188 -51 -243 -65 -54 -14 -106 -28 -114 -30 -8 -2 -159 -43 -335
-90 -176 -47 -327 -88 -335 -90 -8 -1 -33 -8 -55 -14 -22 -6 -43 -11 -47 -11
-4 -1 -22 -6 -40 -11 -18 -6 -91 -26 -162 -45 -71 -19 -132 -37 -135 -40 -7
-7 -9 -652 -1 -663 10 -17 1883 -946 1887 -936 2 6 53 87 113 180 61 94 113
177 116 185 4 8 17 29 29 45 12 17 43 66 70 110 28 44 53 85 58 90 12 16 135
207 153 240 9 17 45 73 79 125 34 52 189 295 345 540 156 245 308 483 337 530
30 47 113 176 185 288 71 112 128 205 126 208 -3 2 -7 2 -9 -1z"/>
<path d="M1012 16827 l0 -3126 62 -65 c33 -35 153 -160 266 -277 113 -116 230
-238 260 -269 30 -32 156 -162 280 -290 124 -128 245 -253 269 -279 24 -25
141 -147 260 -270 119 -123 246 -255 284 -294 37 -38 158 -164 270 -280 111
-115 228 -237 261 -271 32 -33 160 -166 285 -295 426 -442 459 -476 548 -569
l88 -93 230 237 c127 131 250 258 275 284 25 26 160 166 301 311 141 145 290
298 330 341 75 78 519 536 619 638 132 136 554 571 616 636 38 40 170 176 294
304 396 407 363 370 343 390 -10 9 -117 120 -238 245 -121 126 -249 258 -284
294 -35 36 -147 153 -249 259 -102 106 -218 226 -256 266 -39 40 -159 164
-266 276 -229 238 -245 254 -545 565 -126 131 -250 259 -275 285 -25 26 -146
152 -270 280 -253 262 -277 287 -550 570 -107 111 -224 232 -259 269 -35 36
-154 160 -265 275 -110 114 -230 238 -266 276 -36 37 -164 170 -285 295 -121
125 -240 249 -265 275 -46 48 -450 467 -530 549 -25 26 -142 147 -260 270
-118 123 -249 258 -290 301 -106 109 -498 516 -540 560 -104 110 -163 169
-203 209 l-45 43 0 -3125z"/>
<path d="M8344 16685 c0 -910 3 -1652 6 -1650 5 3 63 92 220 340 64 102 203
319 245 385 23 36 174 272 335 525 161 253 303 476 315 495 13 19 121 188 240
375 120 187 222 348 228 357 8 11 8 21 2 27 -8 7 -1528 772 -1575 792 -14 6
-15 -170 -16 -1646z"/>
<path d="M7438 18151 c-1 -5 -111 -121 -243 -256 -132 -136 -269 -278 -305
-315 -36 -37 -169 -175 -296 -306 -128 -132 -271 -279 -319 -329 -48 -49 -193
-200 -323 -334 -131 -134 -268 -276 -306 -315 -37 -39 -113 -116 -167 -172
-54 -56 -99 -105 -99 -110 0 -5 58 -68 128 -140 70 -72 222 -229 337 -349 116
-120 239 -248 275 -285 36 -37 164 -170 285 -295 121 -126 245 -254 275 -286
141 -146 481 -498 534 -553 124 -130 204 -212 223 -229 20 -17 20 -8 20 2128
0 1180 -3 2148 -8 2150 -4 3 -9 1 -11 -4z"/>
<path d="M21995 17369 c-55 -21 -109 -43 -120 -48 -11 -5 -67 -27 -125 -49
-117 -45 -771 -298 -810 -315 -14 -5 -29 -11 -35 -12 -19 -5 -170 -65 -187
-75 -10 -6 -23 -10 -29 -10 -6 0 -37 -11 -68 -25 -31 -13 -243 -96 -471 -184
-228 -88 -428 -165 -445 -172 -16 -7 -50 -20 -75 -29 -76 -28 -1034 -400
-1055 -410 -11 -5 -92 -37 -180 -70 -88 -34 -187 -72 -220 -85 -230 -90 -1210
-471 -1252 -487 -43 -16 -51 -22 -40 -32 39 -41 463 -480 507 -526 29 -30 155
-161 280 -290 125 -129 247 -255 270 -280 23 -25 140 -146 260 -270 120 -124
246 -254 280 -290 59 -62 372 -387 621 -644 65 -67 143 -148 175 -182 126
-130 493 -511 574 -594 47 -49 164 -171 261 -272 97 -100 214 -222 260 -269
79 -81 414 -429 524 -544 28 -28 151 -157 275 -285 276 -285 324 -335 570
-591 326 -338 376 -389 380 -389 4 0 4 7043 0 7423 0 31 -4 47 -12 46 -7 0
-58 -18 -113 -40z"/>
<path d="M16075 15070 c-209 -81 -384 -152 -390 -157 -7 -6 -10 -962 -10
-2831 l1 -2822 45 -47 c26 -27 68 -71 95 -99 27 -28 144 -149 259 -269 116
-119 241 -249 279 -289 37 -39 162 -168 276 -286 114 -118 234 -243 266 -276
50 -53 145 -151 544 -565 30 -31 150 -155 266 -275 116 -121 235 -244 264
-274 29 -30 151 -156 270 -280 120 -124 241 -250 270 -280 29 -30 152 -158
274 -284 121 -126 241 -250 266 -276 50 -52 582 -604 839 -870 46 -47 164
-170 264 -274 100 -104 209 -217 242 -251 33 -34 152 -157 265 -274 113 -117
243 -253 290 -301 182 -189 497 -516 545 -565 87 -90 416 -432 522 -543 l103
-107 0 40 c1 56 1 6662 0 6705 0 38 17 18 -324 371 -72 74 -223 231 -336 349
-113 117 -239 248 -280 290 -113 118 -477 495 -540 560 -30 32 -111 116 -180
187 -132 137 -521 540 -605 628 -27 28 -113 117 -190 196 -217 224 -596 618
-652 677 -28 29 -150 155 -271 280 -120 125 -243 252 -272 282 -29 30 -148
153 -264 274 -116 120 -237 246 -269 279 -32 34 -158 164 -280 291 -122 126
-238 246 -257 266 -19 20 -130 135 -247 256 -277 287 -365 378 -541 562 -81
83 -149 152 -152 151 -3 0 -176 -67 -385 -149z"/>
<path d="M14730 14277 c-72 -67 -278 -257 -300 -277 -15 -13 -59 -54 -269
-249 -86 -80 -143 -133 -256 -236 -66 -61 -129 -119 -141 -130 -52 -50 -249
-232 -267 -248 -11 -9 -68 -61 -126 -116 -58 -54 -118 -109 -132 -122 -26 -23
-205 -189 -259 -239 -55 -51 -226 -209 -255 -235 -16 -15 -81 -76 -144 -134
-63 -58 -123 -114 -135 -124 -11 -10 -46 -42 -76 -70 -30 -29 -109 -102 -175
-162 -66 -61 -129 -119 -140 -130 -12 -11 -70 -65 -130 -120 -60 -55 -133
-122 -162 -150 l-54 -50 1540 -773 1541 -773 0 2196 c0 1207 -1 2195 -2 2195
-2 0 -28 -24 -58 -53z"/>
<path d="M1012 10165 c0 -1620 1 -2945 3 -2945 2 0 10 6 17 14 48 49 502 519
543 561 28 29 163 169 301 311 138 142 280 289 315 325 35 37 168 174 296 305
127 132 266 275 309 319 94 98 533 551 745 769 249 256 319 330 319 336 0 7
-101 112 -726 759 -67 69 -145 151 -174 181 -28 30 -107 111 -173 180 -127
130 -543 560 -643 665 -31 33 -157 164 -279 290 -122 127 -241 250 -265 275
-24 25 -138 143 -254 264 -116 120 -237 245 -268 277 -31 32 -59 59 -61 59 -3
0 -5 -1325 -5 -2945z"/>
<path d="M7224 12873 c-126 -130 -251 -260 -279 -288 -27 -29 -163 -169 -301
-311 -139 -142 -280 -289 -315 -325 -54 -56 -258 -267 -604 -624 -167 -172
-530 -547 -602 -621 -43 -44 -195 -202 -339 -350 -143 -148 -272 -282 -287
-297 l-25 -28 45 -77 c44 -75 356 -617 377 -657 6 -11 19 -31 27 -45 9 -14 30
-50 46 -80 17 -30 72 -127 123 -215 50 -88 102 -178 115 -200 12 -22 38 -67
57 -100 31 -53 674 -1174 726 -1265 10 -19 43 -75 72 -125 29 -49 62 -108 75
-130 12 -22 31 -56 42 -75 11 -19 81 -141 155 -270 74 -129 213 -370 308 -535
95 -165 184 -320 198 -345 14 -25 77 -135 140 -245 63 -110 125 -218 138 -240
12 -22 64 -112 114 -200 51 -88 104 -180 118 -204 14 -25 38 -67 53 -93 16
-27 29 -53 29 -57 0 -5 6 -14 14 -20 11 -9 13 654 13 4124 0 2274 -1 4135 -2
4135 -1 0 -105 -106 -231 -237z"/>
<path d="M8347 12576 c-2 -6 -3 -2045 -3 -4532 l1 -4520 40 -52 c21 -29 43
-52 47 -52 8 0 183 77 346 151 35 16 65 29 67 29 2 0 36 15 77 34 40 18 132
59 203 91 72 32 155 69 185 82 30 14 71 32 90 40 19 9 62 28 95 44 33 15 182
81 330 147 409 181 1282 570 1353 603 35 16 65 29 68 29 2 0 32 13 66 29 56
26 385 173 898 401 96 43 200 89 230 103 30 14 300 134 600 267 300 133 573
255 608 271 35 16 65 29 67 29 2 0 32 13 67 29 35 16 110 50 167 76 115 51
177 79 236 106 22 10 121 53 220 97 99 44 210 94 247 111 37 16 83 37 103 45
l35 15 -2 1557 -3 1557 -1680 842 c-3923 1966 -4754 2381 -4758 2371z"/>
<path d="M4142 9693 c-12 -15 -139 -146 -281 -292 -142 -146 -297 -306 -345
-356 -216 -223 -509 -526 -571 -590 -37 -38 -176 -182 -309 -319 -132 -136
-270 -279 -306 -316 -36 -37 -183 -189 -326 -336 -144 -148 -283 -291 -309
-319 -26 -27 -156 -162 -289 -298 -132 -137 -276 -285 -318 -329 l-76 -80 0
-1453 0 -1452 61 -16 c34 -9 139 -36 232 -62 94 -25 177 -47 185 -49 75 -20
241 -64 415 -111 116 -31 233 -63 260 -70 28 -8 85 -23 128 -34 42 -12 110
-30 150 -40 39 -11 166 -45 280 -76 115 -30 261 -70 325 -87 65 -17 164 -43
222 -59 58 -15 164 -44 235 -63 131 -35 352 -95 370 -100 6 -2 24 -6 40 -11
17 -4 138 -37 270 -72 132 -36 256 -69 275 -73 19 -5 94 -24 165 -44 216 -58
1179 -317 1195 -321 8 -2 58 -15 110 -29 52 -13 181 -48 285 -76 105 -29 195
-53 200 -55 20 -4 73 -19 290 -77 121 -33 227 -61 235 -63 8 -2 126 -33 261
-69 135 -36 248 -66 251 -66 3 0 5 492 5 1092 l0 1092 -54 89 c-29 48 -53 90
-53 92 0 2 -22 42 -49 87 -47 82 -334 580 -383 668 -14 25 -58 101 -98 170
-40 69 -84 145 -98 170 -14 24 -92 161 -175 305 -82 143 -158 276 -169 295
-11 19 -73 127 -138 241 -65 113 -127 221 -138 240 -10 18 -80 140 -154 269
-75 129 -145 251 -155 270 -22 39 -244 425 -623 1085 -136 237 -258 450 -272
475 -34 60 -114 198 -231 402 -54 92 -97 172 -97 178 0 5 -4 10 -10 10 -5 0
-10 4 -10 9 0 5 -36 70 -80 146 -44 76 -80 139 -80 140 0 10 -209 360 -216
361 -5 2 -19 -9 -32 -23z"/>
<path d="M15679 8660 c-6 -73 -3 -2229 3 -2242 4 -9 16 -16 26 -16 17 1 153
-10 207 -16 17 -3 66 -7 110 -10 44 -4 100 -8 125 -11 131 -13 176 -17 214
-20 22 -1 73 -6 111 -9 80 -8 146 -13 225 -20 74 -7 165 -15 220 -21 25 -2 79
-7 120 -10 41 -4 89 -8 105 -10 17 -2 66 -7 110 -10 44 -3 91 -8 105 -10 14
-2 64 -6 112 -10 48 -3 98 -8 110 -10 13 -2 63 -6 112 -10 49 -4 98 -8 110
-10 11 -2 62 -6 111 -10 50 -3 106 -9 125 -12 41 -7 42 -10 -52 88 -85 88
-431 447 -526 546 -42 44 -177 183 -298 309 -122 126 -250 258 -284 294 -34
36 -153 159 -264 273 -110 115 -230 240 -266 277 -36 37 -165 171 -286 297
-122 125 -258 266 -303 313 -45 48 -81 78 -82 70z"/>
<path d="M15679 5938 c-4 -10 -3 -2372 1 -2378 3 -4 50 -20 105 -35 128 -34
270 -72 315 -85 33 -10 454 -122 660 -176 52 -14 151 -41 220 -59 161 -44 882
-238 980 -263 240 -64 775 -206 830 -222 56 -16 458 -124 617 -166 53 -14 347
-93 1008 -270 215 -58 397 -107 405 -109 30 -7 287 -76 415 -110 72 -20 137
-37 145 -39 8 -2 51 -14 95 -26 44 -12 112 -30 150 -40 39 -10 111 -29 160
-43 227 -63 327 -89 330 -85 6 6 7 32 6 98 l-1 65 -76 80 c-66 69 -339 352
-569 590 -269 278 -498 516 -544 564 -29 31 -144 150 -255 264 -110 115 -230
239 -265 275 -35 37 -163 170 -285 296 -122 126 -246 254 -276 286 -30 31
-153 159 -273 283 -120 124 -246 254 -279 289 -135 142 -491 510 -608 629
l-125 128 -65 6 c-69 6 -149 13 -215 20 -22 2 -71 7 -110 10 -38 3 -90 8 -115
11 -42 4 -68 6 -230 19 -36 3 -81 8 -100 10 -19 2 -71 7 -115 10 -44 3 -93 8
-110 10 -16 2 -66 7 -110 10 -44 3 -96 8 -115 10 -19 2 -66 7 -105 10 -38 4
-88 8 -110 10 -22 2 -71 7 -110 10 -38 3 -88 8 -110 10 -22 3 -71 7 -110 10
-38 3 -95 8 -125 11 -30 3 -75 7 -100 9 -57 5 -160 14 -225 20 -27 3 -77 7
-110 10 -33 3 -80 7 -105 10 -25 2 -73 6 -107 9 -35 4 -91 8 -125 12 -35 3
-84 7 -110 10 -27 2 -48 3 -49 2z"/>
<path d="M14601 5700 c-95 -42 -194 -87 -220 -98 -25 -12 -68 -31 -96 -43 -27
-12 -88 -39 -133 -60 -46 -22 -86 -39 -88 -39 -2 0 -32 -13 -66 -29 -53 -25
-754 -337 -1443 -643 -99 -44 -205 -91 -235 -105 -30 -14 -111 -50 -180 -80
-69 -30 -150 -66 -180 -80 -30 -14 -93 -42 -140 -63 -47 -21 -110 -49 -140
-63 -30 -14 -113 -51 -185 -82 -71 -31 -163 -72 -203 -91 -41 -19 -76 -34 -78
-34 -2 0 -32 -13 -66 -29 -94 -44 -851 -382 -863 -385 -5 -1 -35 -14 -65 -28
-30 -14 -242 -109 -471 -211 -229 -102 -436 -194 -460 -205 -24 -11 -125 -56
-224 -100 -99 -44 -206 -92 -237 -106 -31 -14 -68 -30 -82 -36 -14 -5 -26 -13
-26 -17 0 -7 28 -41 180 -223 49 -59 257 -311 273 -330 38 -48 103 -126 107
-130 3 -3 48 -57 99 -120 52 -63 100 -120 108 -126 11 -9 28 -7 71 6 31 11
212 60 402 110 556 148 744 198 935 250 99 27 215 58 258 69 42 12 110 30 150
40 40 11 115 31 167 45 52 14 181 48 285 76 105 28 197 53 205 55 8 2 65 17
125 33 61 17 178 48 260 70 83 22 312 84 510 137 198 53 367 98 375 100 8 2
125 33 260 70 556 150 805 217 819 220 9 2 118 31 244 64 125 34 230 61 232
61 3 0 5 502 5 1115 0 613 -3 1115 -7 1114 -5 0 -86 -36 -182 -79z"/>
<path d="M8345 2260 c0 -236 2 -430 5 -430 3 0 39 9 80 21 41 11 83 22 93 24
46 10 402 108 406 111 4 4 -44 65 -145 184 -22 25 -55 66 -76 90 -95 117 -113
138 -148 180 -21 25 -75 90 -120 145 -46 55 -85 101 -89 103 -3 1 -6 -191 -6
-428z"/>
</g>
</svg>
